<?xml version="1.0" encoding="UTF-8" standalone="no"?>
<!-- Created with Inkscape (http://www.inkscape.org/) -->

<svg
   width="183.582mm"
   height="183.582mm"
   viewBox="0 0 183.582 183.582"
   version="1.1"
   id="svg5"
   inkscape:version="1.1.1 (3bf5ae0d25, 2021-09-20)"
   sodipodi:docname="Pawn.svg"
   xmlns:inkscape="http://www.inkscape.org/namespaces/inkscape"
   xmlns:sodipodi="http://sodipodi.sourceforge.net/DTD/sodipodi-0.dtd"
   xmlns="http://www.w3.org/2000/svg"
   xmlns:svg="http://www.w3.org/2000/svg">
  <sodipodi:namedview
     id="namedview7"
     pagecolor="#505050"
     bordercolor="#ffffff"
     borderopacity="1"
     inkscape:pageshadow="0"
     inkscape:pageopacity="0"
     inkscape:pagecheckerboard="1"
     inkscape:document-units="mm"
     showgrid="false"
     inkscape:snap-bbox="true"
     inkscape:snap-bbox-midpoints="true"
     inkscape:snap-bbox-edge-midpoints="true"
     inkscape:bbox-nodes="true"
     inkscape:bbox-paths="true"
     inkscape:snap-global="true"
     height="183.582mm"
     inkscape:zoom="0.70710678"
     inkscape:cx="82.731493"
     inkscape:cy="359.91735"
     inkscape:window-width="1920"
     inkscape:window-height="1009"
     inkscape:window-x="1432"
     inkscape:window-y="-8"
     inkscape:window-maximized="1"
     inkscape:current-layer="layer1" />
  <defs
     id="defs2" />
  <g
     inkscape:label="Ebene 1"
     inkscape:groupmode="layer"
     id="layer1">
    <path
       id="rect1674"
       style="fill:#ffffff;fill-opacity:1;stroke:none;stroke-width:1.32283"
       d="M 338.09375 0.66210938 L 338.09375 0.6640625 A 137.47635 138.83863 0 0 0 200.61719 139.50195 A 137.47635 138.83863 0 0 0 262.20703 255.20312 A 163.21776 359.38622 0 0 1 260.57617 282.43945 A 173.69085 25.202202 0 0 0 164.4043 304.98047 A 173.69085 25.202202 0 0 0 256.00391 327.18164 A 163.21776 359.38622 0 0 1 114.80273 583.00391 L 114.80273 693.18945 L 323.85547 693.18945 L 339.45703 693.18945 L 340.7793 693.18945 L 565.43359 693.18945 L 565.43359 583.00195 A 163.21776 359.38622 0 0 1 424.19336 326.85352 A 173.69085 25.202202 0 0 0 511.78516 304.97852 A 173.69085 25.202202 0 0 0 419.67773 282.72852 A 163.21776 359.38622 0 0 1 417.86719 252.47656 A 137.47635 138.83863 0 0 0 475.57031 139.5 A 137.47635 138.83863 0 0 0 338.09375 0.66210938 z "
       transform="scale(0.26458333)" />
  </g>
</svg>
